<?xml version="1.0" encoding="iso-8859-1"?>
<!-- Generator: Adobe Illustrator 19.0.0, SVG Export Plug-In . SVG Version: 6.00 Build 0)  -->
<svg version="1.1" id="Capa_1" xmlns="http://www.w3.org/2000/svg" xmlns:xlink="http://www.w3.org/1999/xlink" x="0px" y="0px"
	 viewBox="0 0 512.008 512.008" style="enable-background:new 0 0 512.008 512.008;" xml:space="preserve">
<g>
	<g>
		<path d="M381.048,248.633L146.381,3.299c-3.021-3.146-7.646-4.167-11.688-2.521c-4.042,1.615-6.688,5.542-6.688,9.896v42.667
			c0,2.729,1.042,5.354,2.917,7.333l185.063,195.333L130.923,451.341c-1.875,1.979-2.917,4.604-2.917,7.333v42.667
			c0,4.354,2.646,8.281,6.688,9.896c1.292,0.521,2.646,0.771,3.979,0.771c2.854,0,5.646-1.146,7.708-3.292l234.667-245.333
			C384.986,259.258,384.986,252.758,381.048,248.633z"/>
	</g>
</g>
<g>
</g>
<g>
</g>
<g>
</g>
<g>
</g>
<g>
</g>
<g>
</g>
<g>
</g>
<g>
</g>
<g>
</g>
<g>
</g>
<g>
</g>
<g>
</g>
<g>
</g>
<g>
</g>
<g>
</g>
</svg>
