<svg id="user" xmlns="http://www.w3.org/2000/svg" width="17.063" height="19.501" viewBox="0 0 17.063 19.501">
  <path id="Path_43" data-name="Path 43" d="M142.657,9.751a4.875,4.875,0,1,1,4.875-4.875A4.881,4.881,0,0,1,142.657,9.751Zm0-8.532a3.656,3.656,0,1,0,3.656,3.656,3.66,3.66,0,0,0-3.656-3.656Z" transform="translate(-134.126)" fill="#4a4a4a"/>
  <path id="Path_44" data-name="Path 44" d="M50.9,319.669H35.054a.609.609,0,0,1-.609-.609v-4.2a1.828,1.828,0,0,1,.84-1.545,14.889,14.889,0,0,1,15.383,0,1.829,1.829,0,0,1,.84,1.546v4.2A.609.609,0,0,1,50.9,319.669ZM35.664,318.45H50.29v-3.586a.6.6,0,0,0-.267-.512,13.645,13.645,0,0,0-14.092,0,.6.6,0,0,0-.267.511Z" transform="translate(-34.445 -300.168)" fill="#4a4a4a"/>
</svg>
